<?xml version="1.0" encoding="UTF-8" standalone="no"?>
<!DOCTYPE svg PUBLIC "-//W3C//DTD SVG 1.1//EN" "http://www.w3.org/Graphics/SVG/1.1/DTD/svg11.dtd">
<svg version="1.1" xmlns="http://www.w3.org/2000/svg" xmlns:xlink="http://www.w3.org/1999/xlink" preserveAspectRatio="xMidYMid meet" viewBox="0 0 640 640" width="640" height="640"><defs><path d="M640 318.05C640 493.59 496.61 636.11 320 636.11C143.38 636.11 0 493.59 0 318.05C0 142.51 143.38 0 320 0C496.61 0 640 142.51 640 318.05Z" id="dMUXw556V"></path><linearGradient id="gradientb2wvuWGyh" gradientUnits="userSpaceOnUse" x1="455.25" y1="272.64" x2="241.74" y2="625.96"><stop style="stop-color: #00fffb;stop-opacity: 0.61" offset="0%"></stop><stop style="stop-color: #000025;stop-opacity: 0.76" offset="100%"></stop></linearGradient><path d="M511.19 451.29C494.71 465.01 485.16 453.81 482.53 417.69C478.58 363.5 477.22 279.39 493.15 272C503.77 267.07 484.25 274.84 434.58 295.33C373.95 316.84 356.37 326.19 381.84 323.35C407.3 320.52 428.09 326.89 444.2 342.46C454.12 366.7 450.11 388.75 432.18 408.62C405.28 438.43 377.72 437.61 360.72 428.54C343.72 419.46 320.86 400.21 318.72 349.23C316.58 298.25 349.93 241.01 370.34 220.95C390.75 200.9 414.64 182.82 433.29 172.02C451.93 161.22 497.05 145.16 513.09 155.93C529.12 166.7 523.77 186.57 513.7 198.96C503.63 211.36 470.03 236.14 412.42 259.86C378.71 273.73 353.84 283.89 332.63 290.73C317.58 295.57 304.36 298.75 291.14 300.38C259.28 304.32 199.97 321.93 164.79 365.74C129.61 409.55 115.57 470.63 145.27 481.65C174.97 492.66 225.63 460.35 252.75 381.48C258.31 365.33 281.43 301.39 322.11 189.67L204.99 269.16" id="aq7aFm7O"></path><path d="M82.11 -152.55L105.64 -143.73L133.59 -134.9L152.7 -129.02" id="jUl6yuMYK"></path><path d="M95.35 -118.73L120.35 -111.37L140.94 -106.96" id="afrTZ2vw7"></path><path d="M627.78 318C627.78 486.91 490.27 624.04 320.89 624.04C151.5 624.04 13.99 486.91 13.99 318C13.99 149.1 151.5 11.97 320.89 11.97C490.27 11.97 627.78 149.1 627.78 318Z" id="a1F21mgYHV"></path></defs><g><g><g><use xlink:href="#dMUXw556V" opacity="1" fill="url(#gradientb2wvuWGyh)"></use></g><g><g><filter id="shadow2475387" x="91.12" y="114.37" width="488.14" height="424.37" filterUnits="userSpaceOnUse" primitiveUnits="userSpaceOnUse"><feFlood></feFlood><feComposite in2="SourceAlpha" operator="in"></feComposite><feGaussianBlur stdDeviation="1"></feGaussianBlur><feOffset dx="-18" dy="17" result="afterOffset"></feOffset><feFlood flood-color="#000000" flood-opacity="0.5"></feFlood><feComposite in2="afterOffset" operator="in"></feComposite><feMorphology operator="dilate" radius="13"></feMorphology><feComposite in2="SourceAlpha" operator="out"></feComposite></filter><path d="M511.19 451.29C494.71 465.01 485.16 453.81 482.53 417.69C478.58 363.5 477.22 279.39 493.15 272C503.77 267.07 484.25 274.84 434.58 295.33C373.95 316.84 356.37 326.19 381.84 323.35C407.3 320.52 428.09 326.89 444.2 342.46C454.12 366.7 450.11 388.75 432.18 408.62C405.28 438.43 377.72 437.61 360.72 428.54C343.72 419.46 320.86 400.21 318.72 349.23C316.58 298.25 349.93 241.01 370.34 220.95C390.75 200.9 414.64 182.82 433.29 172.02C451.93 161.22 497.05 145.16 513.09 155.93C529.12 166.7 523.77 186.57 513.7 198.96C503.63 211.36 470.03 236.14 412.42 259.86C378.71 273.73 353.84 283.89 332.63 290.73C317.58 295.57 304.36 298.75 291.14 300.38C259.28 304.32 199.97 321.93 164.79 365.74C129.61 409.55 115.57 470.63 145.27 481.65C174.97 492.66 225.63 460.35 252.75 381.48C258.31 365.33 281.43 301.39 322.11 189.67L204.99 269.16" id="b7sQpQL49s" fill="none" stroke="white" filter="url(#shadow2475387)"></path></g><g><use xlink:href="#aq7aFm7O" opacity="1" fill-opacity="0" stroke="#ffffff" stroke-width="24" stroke-opacity="1"></use></g><g><filter id="shadow8145526" x="120.12" y="143.37" width="413.14" height="350.37" filterUnits="userSpaceOnUse" primitiveUnits="userSpaceOnUse"><feFlood></feFlood><feComposite in2="SourceAlpha" operator="out"></feComposite><feGaussianBlur stdDeviation="1"></feGaussianBlur><feOffset dx="1" dy="1" result="afterOffset"></feOffset><feFlood flood-color="#ffffff" flood-opacity="0.8"></feFlood><feComposite in2="afterOffset" operator="in"></feComposite><feMorphology operator="dilate" radius="1"></feMorphology><feComposite in2="SourceAlpha" operator="in"></feComposite></filter><path d="M511.19 451.29C494.71 465.01 485.16 453.81 482.53 417.69C478.58 363.5 477.22 279.39 493.15 272C503.77 267.07 484.25 274.84 434.58 295.33C373.95 316.84 356.37 326.19 381.84 323.35C407.3 320.52 428.09 326.89 444.2 342.46C454.12 366.7 450.11 388.75 432.18 408.62C405.28 438.43 377.72 437.61 360.72 428.54C343.72 419.46 320.86 400.21 318.72 349.23C316.58 298.25 349.93 241.01 370.34 220.95C390.75 200.9 414.64 182.82 433.29 172.02C451.93 161.22 497.05 145.16 513.09 155.93C529.12 166.7 523.77 186.57 513.7 198.96C503.63 211.36 470.03 236.14 412.42 259.86C378.71 273.73 353.84 283.89 332.63 290.73C317.58 295.57 304.36 298.75 291.14 300.38C259.28 304.32 199.97 321.93 164.79 365.74C129.61 409.55 115.57 470.63 145.27 481.65C174.97 492.66 225.63 460.35 252.75 381.48C258.31 365.33 281.43 301.39 322.11 189.67L204.99 269.16" id="a1VUiWf6oh" fill="none" stroke="white" filter="url(#shadow8145526)"></path></g></g><g><g><use xlink:href="#jUl6yuMYK" opacity="1" fill-opacity="0" stroke="#ffffff" stroke-width="20" stroke-opacity="1"></use></g></g><g><g><use xlink:href="#afrTZ2vw7" opacity="1" fill-opacity="0" stroke="#ffffff" stroke-width="28" stroke-opacity="1"></use></g></g><g><use xlink:href="#a1F21mgYHV" opacity="1" fill="#60c83d" fill-opacity="0"></use><g><use xlink:href="#a1F21mgYHV" opacity="1" fill-opacity="0" stroke="#ffffff" stroke-width="5" stroke-opacity="1"></use></g></g></g></g></svg>